{"accessors" : [{"bufferView" : 0, "byteOffset" : 0, "componentType" : 5123, "count" : 3594, "type" : "SCALAR", "max" : [2994], "min" : [0]}, {"bufferView" : 1, "byteOffset" : 0, "componentType" : 5126, "count" : 2995, "type" : "VEC3", "max" : [2.5355947017669678, 2.535595655441284, 5.371218681335449], "min" : [-2.5355947017669678, -3.397698163986206, -7.681492206756957E-07], "name" : "POSITION"}, {"bufferView" : 1, "byteOffset" : 12, "componentType" : 5126, "count" : 2995, "type" : "VEC2", "max" : [0.9864256978034973, 0.9854104518890381], "min" : [0.008009245619177818, 0.008313179016113281], "name" : "TEXCOORD_0"}, {"bufferView" : 1, "byteOffset" : 20, "componentType" : 5126, "count" : 2995, "type" : "VEC3", "max" : [1.0000044107437134, 1.0000044107437134, 1.0000044107437134], "min" : [-1.0000044107437134, -1.0000044107437134, -1.0000044107437134], "name" : "NORMAL"}], "asset" : {"generator" : "Aspose.3D 23.7.0", "version" : "2.0"}, "buffers" : [{"uri" : "data:application/octet-stream;base64,", "byteLength" : 122204}], "bufferViews" : [{"buffer" : 0, "byteOffset" : 0, "byteLength" : 7188, "target" : 34963}, {"buffer" : 0, "byteOffset" : 7192, "byteLength" : 115008, "byteStride" : 32, "target" : 34962}], "materials" : [{"name" : "Temple1_Text", "pbrMetallicRoughness" : {"baseColorFactor" : [0.800000011920929, 0.800000011920929, 0.800000011920929, 1], "metallicFactor" : 0, "roughnessFactor" : 0.5}, "emissiveFactor" : [0, 0, 0], "alphaMode" : "OPAQUE", "doubleSided" : true}], "meshes" : [{"primitives" : [{"attributes" : {"POSITION" : 1, "TEXCOORD_0" : 2, "NORMAL" : 3}, "indices" : 0, "material" : 0, "mode" : 4}]}], "nodes" : [{"mesh" : 0, "name" : "temple_LP"}], "scene" : 0, "scenes" : [{"nodes" : [0]}]}